<?xml version="1.0" encoding="UTF-8"?>
<svg id="Layer_1" xmlns="http://www.w3.org/2000/svg" version="1.1" viewBox="0 0 128.5 17.8">
  <!-- Generator: Adobe Illustrator 30.0.0, SVG Export Plug-In . SVG Version: 2.1.1 Build 123)  -->
  <defs>
    <style>
      .st0 {
        fill: #010101;
      }
    </style>
  </defs>
  <path class="st0" d="M3.5,17c0,.4-.2.6-.6.6H.6c-.4,0-.6-.2-.6-.6V.9C0,.5.2.3.6.3h5.3c4.9,0,7.3,2,7.3,6s-2.6,6.2-7.5,6.2h-1.9c-.2,0-.3,0-.3.3v4.2ZM3.5,8.9c0,.2,0,.3.3.3h2c2.5,0,3.9-.9,3.9-2.9s-1.3-2.8-3.9-2.8h-2c-.2,0-.3,0-.3.3v5.1Z"/>
  <path class="st0" d="M20.5,17.5c-.4,0-.6-.2-.6-.6V.9c0-.4.2-.6.6-.6h5.2c5,0,7.4,1.8,7.4,5.6s-1.2,3.7-3.1,4.6l4,6.3c.1.2.2.4.2.5,0,.2-.2.3-.6.3h-2.4c-.6,0-.8-.1-1.2-.7l-4.2-7c0-.1-.1-.3-.1-.4,0-.2.1-.2.4-.3,2.1-.2,3.5-1.2,3.5-3s-1.4-2.8-3.9-2.8h-1.9c-.2,0-.3,0-.3.3v13.3c0,.4-.2.6-.6.6h-2.2Z"/>
  <path class="st0" d="M59,8.9c0,5.1-3.9,9-9.1,8.9-5.1,0-9.1-3.8-9-8.8C40.7,3.9,44.7,0,49.9,0c5.2,0,9.1,3.8,9.1,8.9ZM55.4,8.9c0-3.4-2.4-5.7-5.5-5.7s-5.5,2.4-5.5,5.7,2.4,5.7,5.5,5.7,5.5-2.4,5.5-5.7Z"/>
  <path class="st0" d="M76.2,14.3c.4,0,.6.2.6.6v2c0,.4-.2.6-.6.6h-10c-.4,0-.6-.2-.6-.6V.9c0-.4.2-.6.6-.6h2.2c.4,0,.6.2.6.6v13.1c0,.2,0,.3.3.3h6.8Z"/>
  <path class="st0" d="M84,17.5c-.4,0-.6-.2-.6-.6V.9c0-.4.2-.6.6-.6h2.2c.4,0,.6.2.6.6v16.1c0,.4-.2.6-.6.6h-2.2Z"/>
  <path class="st0" d="M99.8.3c4.2,0,6.5,1.4,6.5,4.7s-.9,3-2.3,3.6c1.8.5,2.9,1.8,2.9,3.7,0,3.5-2.3,5.2-7,5.2h-5.8c-.4,0-.6-.2-.6-.6V.9c0-.4.2-.6.6-.6h5.7ZM97,7c0,.2,0,.3.3.3h2.5c2.1,0,3-.6,3-2s-1-1.9-3.2-1.9h-2.3c-.2,0-.3,0-.3.3v3.3ZM100,10.4h-2.7c-.3,0-.3,0-.3.3v3.4c0,.2,0,.3.3.3h2.6c2.4,0,3.4-.6,3.4-2.1s-1.1-2-3.3-2Z"/>
  <path class="st0" d="M113.5,10.2V.9c0-.4.2-.6.6-.6h2.2c.4,0,.6.2.6.6v9.1c0,3,1.4,4.7,4,4.7s4-1.7,4-4.7V.9c0-.4.2-.6.6-.6h2.2c.4,0,.6.2.6.6v9.3c0,5.1-3.2,7.7-7.6,7.7s-7.3-2.5-7.3-7.6Z"/>
</svg>